<svg xmlns="http://www.w3.org/2000/svg" xmlns:xlink="http://www.w3.org/1999/xlink" width="106.54" height="106.54" viewBox="0 0 106.54 106.54"><defs><filter id="a" x="0" y="0" width="106.54" height="106.54" filterUnits="userSpaceOnUse"><feOffset dy="3" input="SourceAlpha"/><feGaussianBlur stdDeviation="3" result="b"/><feFlood flood-opacity="0.161"/><feComposite operator="in" in2="b"/><feComposite in="SourceGraphic"/></filter></defs><g transform="matrix(1, 0, 0, 1, 0, 0)" filter="url(#a)"><path d="M50,5.73A44.27,44.27,0,1,0,94.27,50,44.282,44.282,0,0,0,50,5.73ZM79.24,26.14a37.658,37.658,0,0,1,8.55,23.53c-1.25-.24-13.73-2.78-26.31-1.2-.29-.62-.53-1.3-.82-1.97-.77-1.82-1.63-3.7-2.5-5.47C72.09,35.36,78.42,27.19,79.24,26.14ZM50,12.26a37.7,37.7,0,0,1,25.06,9.51c-.67.96-6.39,8.59-19.83,13.64A202.249,202.249,0,0,0,41.11,13.28,38.158,38.158,0,0,1,50,12.26ZM33.92,15.82A237.747,237.747,0,0,1,47.94,37.67a141.55,141.55,0,0,1-34.95,4.61A37.934,37.934,0,0,1,33.92,15.82ZM12.17,50.05V48.9a137.937,137.937,0,0,0,38.84-5.38c1.1,2.11,2.11,4.27,3.07,6.43-.48.14-1.01.29-1.49.43C33.1,56.67,22.73,73.86,21.87,75.3A37.662,37.662,0,0,1,12.17,50.05ZM50,87.83a37.572,37.572,0,0,1-23.19-7.97c.67-1.39,8.35-16.18,29.67-23.62.1-.05.14-.05.24-.1A156.794,156.794,0,0,1,64.79,84.8,37.012,37.012,0,0,1,50,87.83Zm21.08-6.48a161.84,161.84,0,0,0-7.35-26.93,55.346,55.346,0,0,1,23.53,1.63A37.5,37.5,0,0,1,71.08,81.35Z" transform="translate(3.27 0.27)" fill="#e36588" fill-rule="evenodd"/></g></svg>