<svg xmlns="http://www.w3.org/2000/svg" xmlns:xlink="http://www.w3.org/1999/xlink" width="76.037" height="114.3" viewBox="0 0 76.037 114.3"><defs><filter id="a" x="0" y="0" width="76.037" height="114.3" filterUnits="userSpaceOnUse"><feOffset dy="3" input="SourceAlpha"/><feGaussianBlur stdDeviation="3" result="b"/><feFlood flood-opacity="0.161"/><feComposite operator="in" in2="b"/><feComposite in="SourceGraphic"/></filter></defs><g transform="translate(227 -311.9)"><g transform="matrix(1, 0, 0, 1, -227, 311.9)" filter="url(#a)"><path d="M57.1,98.2H43.8a5.977,5.977,0,0,1-5.9-5.9V56.4h-11A5.977,5.977,0,0,1,21,50.5V40.2a5.977,5.977,0,0,1,5.9-5.9H37.8V25c0-13.8,9.1-23.1,22.7-23.1H70.6a5.977,5.977,0,0,1,5.9,5.9V20a5.977,5.977,0,0,1-5.9,5.9H63.1v8.4h10a5.925,5.925,0,0,1,5.8,7.1h0L76.8,51.6A5.9,5.9,0,0,1,71,56.3H63v36A6.044,6.044,0,0,1,57.1,98.2ZM26.9,39.8a.43.43,0,0,0-.4.4V50.6a.43.43,0,0,0,.4.4H43.4V92.3a.43.43,0,0,0,.4.4H57.1a.43.43,0,0,0,.4-.4V50.8H71c.2,0,.4-.1.4-.2l2.1-10.3c0-.2,0-.3-.1-.4s-.2-.1-.4-.1H57.6V26.3c0-3.6,1-5.9,6-5.9h7A.43.43,0,0,0,71,20V7.7a.43.43,0,0,0-.4-.4H60.5c-10.4,0-17.2,6.9-17.2,17.6V39.7H26.9Z" transform="translate(-12 4.1)" fill="#e36588"/></g></g></svg>