<svg xmlns="http://www.w3.org/2000/svg" xmlns:xlink="http://www.w3.org/1999/xlink" width="104" height="104" viewBox="0 0 104 104"><defs><filter id="a" x="0" y="0" width="104" height="104" filterUnits="userSpaceOnUse"><feOffset dy="3" input="SourceAlpha"/><feGaussianBlur stdDeviation="3" result="b"/><feFlood flood-opacity="0.161"/><feComposite operator="in" in2="b"/><feComposite in="SourceGraphic"/></filter></defs><g transform="translate(2 -1)" opacity="0.998"><g transform="matrix(1, 0, 0, 1, -2, 1)" filter="url(#a)"><path d="M92.74,32.27a31.688,31.688,0,0,0-2-10.44A21.975,21.975,0,0,0,78.16,9.25a31.688,31.688,0,0,0-10.44-2C63.14,7.05,61.68,7,50,7s-13.14.05-17.73.26a31.688,31.688,0,0,0-10.44,2A21.975,21.975,0,0,0,9.25,21.84a31.688,31.688,0,0,0-2,10.44C7.05,36.86,7,38.32,7,50s.05,13.14.26,17.73a31.688,31.688,0,0,0,2,10.44A21.975,21.975,0,0,0,21.84,90.75a31.688,31.688,0,0,0,10.44,2c4.58.2,6.04.25,17.72.25s13.14-.05,17.73-.26a31.688,31.688,0,0,0,10.44-2A21.975,21.975,0,0,0,90.75,78.16a31.688,31.688,0,0,0,2-10.44c.2-4.58.25-6.04.25-17.72S92.95,36.86,92.74,32.27ZM85,67.38a23.684,23.684,0,0,1-1.48,7.98A13.189,13.189,0,0,1,80.3,80.3a13.392,13.392,0,0,1-4.94,3.22A23.743,23.743,0,0,1,67.38,85c-4.53.21-5.89.25-17.38.25S37.16,85.21,32.62,85a23.684,23.684,0,0,1-7.98-1.48A13.189,13.189,0,0,1,19.7,80.3a13.392,13.392,0,0,1-3.22-4.94A23.743,23.743,0,0,1,15,67.38c-.21-4.53-.25-5.89-.25-17.38s.04-12.84.25-17.38a23.684,23.684,0,0,1,1.48-7.98A13.189,13.189,0,0,1,19.7,19.7a13.392,13.392,0,0,1,4.94-3.22A23.743,23.743,0,0,1,32.62,15c4.53-.21,5.89-.25,17.38-.25s12.84.04,17.38.25a23.684,23.684,0,0,1,7.98,1.48A13.189,13.189,0,0,1,80.3,19.7a13.392,13.392,0,0,1,3.22,4.94A23.743,23.743,0,0,1,85,32.62c.21,4.53.25,5.89.25,17.38S85.21,62.84,85,67.38Z" transform="translate(2 -1)" fill="#e36588"/></g><path d="M50,27.92A22.08,22.08,0,1,0,72.08,50,22.079,22.079,0,0,0,50,27.92Zm0,36.41A14.33,14.33,0,1,1,64.33,50,14.329,14.329,0,0,1,50,64.33Z" fill="#e36588"/><circle cx="5.16" cy="5.16" r="5.16" transform="translate(66.741 23.21) rotate(-13.286)" fill="#e36588"/></g></svg>