<svg xmlns="http://www.w3.org/2000/svg" xmlns:xlink="http://www.w3.org/1999/xlink" width="84" height="83" viewBox="0 0 84 83"><defs><filter id="a" x="0" y="0" width="84" height="83" filterUnits="userSpaceOnUse"><feOffset dx="5" dy="5" input="SourceAlpha"/><feGaussianBlur stdDeviation="3" result="b"/><feFlood flood-opacity="0.161"/><feComposite operator="in" in2="b"/><feComposite in="SourceGraphic"/></filter><clipPath id="c"><rect width="37" height="37" transform="translate(169 557)" fill="#fff" stroke="#fff" stroke-width="1"/></clipPath></defs><g transform="translate(-147 -539)"><g transform="matrix(1, 0, 0, 1, 147, 539)" filter="url(#a)"><path d="M24,0H42A24,24,0,0,1,66,24V41A24,24,0,0,1,42,65H24A24,24,0,0,1,0,41V24A24,24,0,0,1,24,0Z" transform="translate(4 4)" fill="#e36588"/></g><g transform="translate(-3)" clip-path="url(#c)"><g transform="translate(167.65 555.655)"><path d="M18.619,27.274a1.11,1.11,0,0,0,1.112-1.112V16.237a6.557,6.557,0,0,1,6.55-6.55h7.94L30.45,13.538a1.115,1.115,0,0,0,0,1.548,1.085,1.085,0,0,0,.754.318A1.261,1.261,0,0,0,32,15.086L38.35,8.615,32,2.263A1.095,1.095,0,1,0,30.45,3.811l3.732,3.732h-7.94a8.734,8.734,0,0,0-8.734,8.734v9.965A1.124,1.124,0,0,0,18.619,27.274Z" fill="#fff" stroke="#fff" stroke-width="0.397"/><path d="M36.325,24.773a1.11,1.11,0,0,0-1.112,1.112v9.726H3.573V25.844a1.11,1.11,0,0,0-1.112-1.112A1.085,1.085,0,0,0,1.35,25.844v11.91H37.4V25.844A1.021,1.021,0,0,0,36.325,24.773Z" fill="#fff" stroke="#fff" stroke-width="0.397"/></g></g></g></svg>