<svg xmlns="http://www.w3.org/2000/svg" xmlns:xlink="http://www.w3.org/1999/xlink" width="114.312" height="98" viewBox="0 0 114.312 98"><defs><filter id="a" x="0" y="0" width="114.312" height="98" filterUnits="userSpaceOnUse"><feOffset dy="3" input="SourceAlpha"/><feGaussianBlur stdDeviation="3" result="b"/><feFlood flood-opacity="0.161"/><feComposite operator="in" in2="b"/><feComposite in="SourceGraphic"/></filter></defs><g transform="translate(7.213 -4)" opacity="0.997"><g transform="matrix(1, 0, 0, 1, -7.21, 4)" filter="url(#a)"><path d="M33.9,90c-8.3,0-20.2-1.6-30.2-9.1a4.778,4.778,0,0,1-1.5-5.8,4.6,4.6,0,0,1,5.2-2.8,32.166,32.166,0,0,0,13.9-1.1A21.334,21.334,0,0,1,12,59a5.112,5.112,0,0,1,0-3A21.923,21.923,0,0,1,5.6,39.6,4.936,4.936,0,0,1,7.3,36,21.9,21.9,0,0,1,8.7,16a5.217,5.217,0,0,1,3.7-2.4,4.858,4.858,0,0,1,4.1,1.7c.1.1,12.4,14.3,27.7,16.4A22.4,22.4,0,0,1,66.5,10a22.069,22.069,0,0,1,14.2,5.1A16.044,16.044,0,0,0,88,12.3a4.629,4.629,0,0,1,4.8-.4,4.942,4.942,0,0,1,2.8,4,9.009,9.009,0,0,1-.4,2.8,2.177,2.177,0,0,1,.8.5h0a4.8,4.8,0,0,1,1.9,5.3c-.6,2.3-3.6,5.9-8.9,10.8C88.8,45,85.3,79.6,45.1,89A58.164,58.164,0,0,1,33.9,90ZM9.2,78c8.3,5.3,17.9,6.5,24.7,6.5a55.049,55.049,0,0,0,10.2-.9c38.1-8.9,39.7-42.8,39.6-49.5V32.9l.9-.8A65.319,65.319,0,0,0,91.5,25a.9.9,0,0,0-.5.1L85.4,27a1.024,1.024,0,0,1-1.1-1.6L88,20.8a10.186,10.186,0,0,0,1.8-3,20.589,20.589,0,0,1-9.9,3H78.8l-.9-.8A16.769,16.769,0,0,0,49.7,32.3a13.4,13.4,0,0,0,.1,2l.2,2a.972.972,0,0,1-1,1.1l-2-.1C30,37,16.1,23,12.9,19.6c-3.5,6.8-1.5,12.8.9,16.8l3.3,5.5a.986.986,0,0,1-1.3,1.4l-4.6-2.5q.3,8.1,6.3,12.6l2.4,1.9a.989.989,0,0,1-.2,1.7l-2.2.9A15.6,15.6,0,0,0,28.6,68.3l3.6,1a1.013,1.013,0,0,1,.3,1.8l-3,2.1C22.5,78.1,13.7,78.3,9.2,78Zm3.1-59.1Zm79-2.1Z" transform="translate(7.21 -4)" fill="#e36588"/></g></g></svg>